<svg width="38" height="49" viewBox="0 0 38 49" fill="none" xmlns="http://www.w3.org/2000/svg">
<path d="M15.5159 4.37081C15.3615 4.52451 15.2512 4.72212 15.2512 4.85386C15.2512 4.96365 15.8466 6.74216 16.5523 8.80612C17.28 10.8701 17.8975 12.8023 17.9416 13.1097C17.9857 13.483 18.1401 13.6586 18.4488 13.6586C18.9781 13.6586 19.1545 12.9999 18.7135 12.5827C18.3165 12.1655 15.8466 5.05148 16.0231 4.76604C16.2215 4.43668 21.0951 4.48059 21.3598 4.80995C21.4921 4.96365 23.7194 10.8262 26.3657 17.8085C29.9161 27.2939 31.0628 30.5874 30.8423 30.7192C30.5115 30.9387 25.3733 30.9387 25.0205 30.7192C24.7117 30.5216 23.3665 26.9645 23.5209 26.723C23.7194 26.3936 23.3665 25.8447 22.9475 25.8447C22.3742 25.8447 22.1757 26.4376 22.5947 26.8987C22.7711 27.0963 23.1901 27.9965 23.4988 28.8748C24.4691 31.5974 24.0281 31.3559 27.9975 31.29L31.4598 31.2242L31.5259 30.6313C31.5921 30.1044 30.1146 26.0423 22.2639 5.24909L21.8449 4.10733H18.8017C16.7508 4.10733 15.6923 4.19515 15.5159 4.37081Z" fill="white"/>
<path d="M19.6616 9.00372C19.6616 9.31112 19.7498 9.59656 19.8601 9.64047C20.1468 9.7283 26.2774 27.25 26.2774 27.9526C26.2774 28.4137 26.3656 28.5015 26.7625 28.4356C27.3579 28.3478 27.5564 27.6891 27.0933 27.3158C26.7625 27.0304 20.9848 10.6944 20.7863 9.39895C20.676 8.80611 20.5217 8.58654 20.1468 8.54262C19.7498 8.47675 19.6616 8.56458 19.6616 9.00372Z" fill="white"/>
<path d="M12.0977 12.4949C11.8992 12.6486 10.6422 15.6786 9.29699 19.2357C7.95179 22.7927 6.6948 25.8886 6.49633 26.1082C6.16554 26.4815 6.16554 26.5473 6.45223 26.8547C6.93738 27.3158 7.5328 27.0084 7.5328 26.2839C7.5328 25.4275 12.252 12.9999 12.5828 12.9999C12.9136 12.9999 18.6472 30.1483 18.4708 30.5874C18.3165 30.9607 16.9492 31.0046 16.3538 30.6313C16.0009 30.4118 15.8466 30.4118 15.5599 30.7192C15.2291 31.0266 15.2291 31.1583 15.4717 31.4437C15.6481 31.6633 15.8907 31.7292 16.1112 31.6414C16.3097 31.5535 16.9933 31.4218 17.6549 31.3559C18.4047 31.2681 18.9339 31.0924 19.0662 30.8729C19.2427 30.5874 18.6031 28.3917 16.3758 21.6509C13.7736 13.7684 13.1562 12.2314 12.6049 12.2314C12.5387 12.2314 12.2961 12.3631 12.0977 12.4949Z" fill="white"/>
<path d="M11.0613 22.0022C10.929 22.1779 10.8628 22.3975 10.929 22.5292C10.9951 22.639 10.51 24.2199 9.84838 26.0423C9.18681 27.8867 8.6355 29.4676 8.6355 29.5774C8.6355 29.7091 9.5176 29.797 10.7084 29.797C11.8772 29.797 12.8696 29.8848 12.9357 30.0165C13.1563 30.3678 13.9281 30.28 14.0825 29.8848C14.1486 29.7091 14.0604 29.3798 13.8619 29.2041C13.5752 28.9187 13.4429 28.8967 13.1783 29.1163C12.9798 29.292 12.2521 29.3578 11.1054 29.3139L9.34118 29.248L10.4879 26.1521C11.1054 24.4395 11.7449 22.8805 11.9213 22.6829C12.2521 22.2877 12.0977 21.6729 11.6567 21.6729C11.4803 21.6729 11.2156 21.8266 11.0613 22.0022Z" fill="white"/>
<path d="M6.87134 39.4141V43.7835L7.73138 44.4642C8.21654 44.8594 8.81195 45.1668 9.05453 45.1668C9.51763 45.1668 9.51763 45.079 9.51763 40.1167V35.0666H8.19449H6.87134V39.4141Z" fill="white"/>
<path d="M12.605 39.4361V43.8055L13.4871 44.5081C14.3912 45.2108 14.3912 45.2108 16.5303 45.1229C18.9561 45.0131 19.9043 44.6618 20.4336 43.6299C21.007 42.532 20.8747 41.5 20.0367 40.6657L19.331 39.963L19.9264 39.4141C20.7644 38.6456 20.7864 37.1526 19.9926 36.2084C19.2648 35.3521 18.0519 35.0666 15.0528 35.0666H12.605V39.4361ZM17.7653 37.3063C18.2284 37.965 18.2063 38.2724 17.677 38.7993C17.3683 39.1067 16.9493 39.2385 16.2436 39.2385H15.2513V38.0308V36.8232H16.3318C17.2139 36.8232 17.5006 36.911 17.7653 37.3063ZM17.8535 41.2585C18.0078 41.4122 18.1181 41.8513 18.1181 42.2466C18.1181 43.1248 17.655 43.4103 16.2657 43.4103H15.2513V42.2027V40.995H16.4201C17.0596 40.995 17.6991 41.1048 17.8535 41.2585Z" fill="white"/>
<path d="M26.1892 35.2423C26.1451 35.3301 25.285 37.5258 24.2926 40.1167C23.3003 42.7077 22.4402 44.9034 22.3961 44.9912C22.33 45.101 22.9254 45.1668 23.6972 45.1668H25.1086L25.3732 44.2886L25.6378 43.3883L27.3138 43.4542L28.9898 43.5201L29.2545 44.2886C29.5191 45.0351 29.5411 45.0571 30.8643 45.1229L32.2315 45.1888L31.7905 44.0251C31.5479 43.3883 30.6879 41.1048 29.8719 38.953L28.3944 35.0666H27.3359C26.7625 35.0666 26.2553 35.1325 26.1892 35.2423ZM27.9093 40.2046C28.1077 40.7974 28.2621 41.3683 28.2621 41.4781C28.2621 41.5659 27.821 41.6537 27.2918 41.6537H26.3215L26.7846 40.2265C27.0492 39.4361 27.3138 38.8652 27.402 38.975C27.4682 39.0628 27.7108 39.6117 27.9093 40.2046Z" fill="white"/>
</svg>
